# xmcd
#
# Track frame offsets:
#	150
#	13883
#	24637
#	44514
#	59325
#	76450
#	86754
#	97823
#	110125
#	124583
#	139218
#	154247
#	167800
#	181880
#	197233
#	209225
#	218611
#	232371
#
# Disc length: 3340 seconds
#
# Revision: 1
# Processed by: cddbd v1.5.1PL2 Copyright (c) Steve Scherf et al.
# Submitted via: audiograbber 1.83.01
#
DISCID=0e0d0a12
DTITLE=Martina McBride - Timeless
DYEAR=1900
DGENRE=
TTITLE0=You Win Again
TTITLE1=I'll Be There
TTITLE2=I Can't Stop Loving You
TTITLE3=(I Never Promised You A) Rose Garden
TTITLE4=Today I Started Loving You Again
TTITLE5=You Ain't Woman Enough
TTITLE6=Once A Day
TTITLE7=Pick Me Up On Your Way Down
TTITLE8=I Don't Hurt Anymore
TTITLE9=True Love Ways
TTITLE10=Til I Can Make It On My Own
TTITLE11=I Still Miss Someone
TTITLE12=Heartache By The Numbers
TTITLE13=Satin Sheets
TTITLE14=Thanks A Lot
TTITLE15=Love's Gonna Live Here
TTITLE16=Make The World Go Away
TTITLE17=Help Me Make It Through The Night
EXTD=
EXTT0=
EXTT1=
EXTT2=
EXTT3=
EXTT4=
EXTT5=
EXTT6=
EXTT7=
EXTT8=
EXTT9=
EXTT10=
EXTT11=
EXTT12=
EXTT13=
EXTT14=
EXTT15=
EXTT16=
EXTT17=
PLAYORDER=
